<svg version="1.1" xmlns="http://www.w3.org/2000/svg" viewBox="0 0 530.2019017120854 104" width="1060.4038034241707" height="208">
  <!-- svg-source:excalidraw -->
  
  <defs>
    <style>
      @font-face {
        font-family: "Virgil";
        src: url("https://excalidraw.com/FG_Virgil.woff2");
      }
      @font-face {
        font-family: "Cascadia";
        src: url("https://excalidraw.com/Cascadia.woff2");
      }
    </style>
  </defs>
  <rect x="0" y="0" width="530.2019017120854" height="104" fill="#ffffff"></rect><g transform="translate(11.201901712085373 50) rotate(0 25 20.5)"><text x="0" y="33" font-family="Helvetica, Segoe UI Emoji" font-size="36px" fill="#087f5b" text-anchor="start" style="white-space: pre;" direction="ltr">8 5</text></g><g transform="translate(111.20190171208537 50) rotate(0 26.5 22)"><text x="0" y="35" font-family="Helvetica, Segoe UI Emoji" font-size="37.89473684210528px" fill="#5f3dc4" text-anchor="start" style="white-space: pre;" direction="ltr">1 7</text></g><g transform="translate(211.20190171208537 50) rotate(0 25 20.5)"><text x="0" y="33" font-family="Helvetica, Segoe UI Emoji" font-size="36px" fill="#1864ab" text-anchor="start" style="white-space: pre;" direction="ltr">6 2</text></g><g transform="translate(312.3974344698091 50.484660848230135) rotate(0 55 20.5)"><text x="0" y="33" font-family="Helvetica, Segoe UI Emoji" font-size="36px" fill="#e67700" text-anchor="start" style="white-space: pre;" direction="ltr">0 0 5 0</text></g><g><g transform="translate(11.201901712085373 50) rotate(0 -0.25180226257225513 -9.760515948385006)"><path d="M0.18089899644255647 0.9754572786390783 C0.14794170483946809 -2.4392990273733934, 0.6666113816201688 -17.06866447950403, 0.6982971869409085 -20.496489175409078 M-1.183267759764567 0.44196840458549547 C-1.3915489182714373 -2.81116721388263, -0.047036511981859874 -15.526136543021225, 0.11685774645768099 -19.21972074127756" stroke="#5f3dc4" stroke-width="1" fill="none"></path></g></g><g><g transform="translate(11.201901712085373 30) rotate(0 30.5096733368095 -0.21263575181365013)"><path d="M0.7429209910333157 0.7391581691801548 C10.531749435514211 0.4770017065107822, 49.25859400853515 -1.2086139999330043, 59.10398449525237 -1.164429672807455 M-0.32618421801365916 0.08161226266063748 C9.803757871007548 -0.11380859470926227, 51.465736994063484 -0.08955956167541448, 61.34553089163266 -0.23832999981008474" stroke="#5f3dc4" stroke-width="1" fill="none"></path></g></g><g><g transform="translate(71.20190171208537 30) rotate(0 -0.38612341814678075 9.829883269220602)"><path d="M-0.7660874404013156 -0.6068356119096279 C-0.8289351738989352 2.6035540578265985, -0.7482369937002659 16.918743761132163, -0.5618224896490573 20.26660215035081 M1.0325779240485282 1.6889717464987188 C0.7787138416524978 5.039183741047358, -1.5946802843455226 15.144661023948963, -1.8048247603420169 18.28399353050627" stroke="#5f3dc4" stroke-width="1" fill="none"></path></g></g><g><g transform="translate(112.54289261822896 51.43854938785546) rotate(0 -0.4055560510698797 -9.72371800090653)"><path d="M-1.0957262076437473 -0.5997691713273525 C-1.3280227936804294 -4.32160708134373, -0.3532480753958226 -17.904514098415774, -0.2576691426336766 -21.147184070199728 M0.52987880400382 1.6997480683866888 C0.017605221485719302 -1.411686996187394, -0.9923221839312464 -16.800807211861635, -1.340990906143561 -20.2120304558333" stroke="#5f3dc4" stroke-width="1" fill="none"></path></g></g><g><g transform="translate(112.54289261822896 31.43854938785546) rotate(0 30.181364828995413 -0.3487796842586306)"><path d="M-0.5997691713273525 -0.2576691426336766 C9.011726251989602 -0.16209020987153056, 48.7621525682509 -0.5333779610693454, 58.85281592980027 -0.5222526110708713 M1.286213284386322 -1.4385493878554554 C11.145722516132519 -1.0884237671922894, 51.318663797629995 0.3301753975916652, 60.96249882931821 0.7409900193382053" stroke="#5f3dc4" stroke-width="1" fill="none"></path></g></g><g><g transform="translate(172.54289261822896 31.43854938785546) rotate(0 0.03171756631689959 10.152581476462075)"><path d="M-0.2576691426336766 -1.147184070199728 C-0.16209020987153056 2.2768126246829827, -0.5333779610693454 16.37910788829128, -0.5222526110708713 19.944210997968913 M1.807915828144178 0.8649403476063164 C1.7956524117942902 4.540903055503343, -1.2670202595833688 17.981716317866617, -1.7444806955102832 21.452347023123874" stroke="#5f3dc4" stroke-width="1" fill="none"></path></g></g><g><g transform="translate(212.32024441899102 50.81783637351356) rotate(0 0.4161796373454649 -9.81358570680024)"><path d="M0.7592182360589503 0.2234728015959262 C0.5633207283914089 -3.278453151633342, -0.6100391663610936 -16.667266083012024, -0.7443941630423069 -19.850644215196372 M-0.30133091934956613 -0.704807922905311 C-0.14809590735472744 -3.480877253379052, 1.6660714023467154 -14.91400398837092, 1.5767534377332777 -18.234807176953183" stroke="#5f3dc4" stroke-width="1" fill="none"></path></g></g><g><g transform="translate(212.32024441899102 30.817836373513558) rotate(0 29.515506538949012 0.3731330937868904)"><path d="M0.2234728015959262 -0.7443941630423069 C10.054880181699993 -0.8787491597235202, 49.99940058365465 -0.13442640677094453, 60.14935578480363 -0.04691174402832976 M-1.118342706905678 1.4791949560213835 C8.46653225894086 1.4786713342834266, 48.93546702112071 1.5485765178967268, 59.27972210819833 1.4658848415780814" stroke="#5f3dc4" stroke-width="1" fill="none"></path></g></g><g><g transform="translate(272.320244418991 30.817836373513558) rotate(0 0.023037149375284116 10.152683817488139)"><path d="M-0.7443941630423069 0.14935578480362888 C-0.8787491597235202 3.6326443192859488, -0.13442640677094453 17.769585426400106, -0.04691174402832976 21.123204008489846 M1.0656601720210164 -0.8178363735135645 C0.7027475132700054 2.3385463897728673, -0.6586191392783076 15.832194563482577, -1.0195858732704073 19.5903113641683" stroke="#5f3dc4" stroke-width="1" fill="none"></path></g></g><g><g transform="translate(312.3974344698091 50.484660848230135) rotate(0 -0.09729699414691595 -9.583204464572475)"><path d="M0.1728563748300076 -0.8499305807054043 C0.3582554064691067 -4.386607663085064, 1.0070489846169948 -17.405130219707885, 1.0009387694299219 -20.484660848230124 M-1.195532757723704 1.31825191908516 C-1.0708205232862384 -2.1208128833429263, 0.4721308325883002 -15.429246796832109, 0.578386159753427 -19.201682542329653" stroke="#5f3dc4" stroke-width="1" fill="none"></path></g></g><g><g transform="translate(312.3974344698091 30.484660848230135) rotate(0 59.33270428553226 0.9406589187914278)"><path d="M-0.8499305807054043 1.0009387694299219 C18.94672567024827 0.9948285542428491, 99.26153644695879 0.42583114728331556, 119.51533915176988 0.13619508370757094 M0.9047171350847929 0.4808276780415328 C20.436596628976986 0.6758773480821403, 98.42022421265952 1.7929692878294736, 118.31284674282186 1.74512275387533" stroke="#5f3dc4" stroke-width="1" fill="none"></path></g></g><g><g transform="translate(433.1886691029846 32.26937258712019) rotate(0 0.10485206812722936 9.444086954635566)"><path d="M1.0009387694299219 -0.48466084823012345 C0.9948285542428491 3.102475189914306, 0.42583114728331556 17.16197717959682, 0.13619508370757094 20.672885648161174 M0.06729289404116567 -1.784711738890037 C-0.10004647293128077 1.5300384674811112, -1.0242263693455607 15.51559198710757, -0.7403479609731585 18.903575864667072" stroke="#5f3dc4" stroke-width="1" fill="none"></path></g></g><g transform="translate(11.201901712085373 10) rotate(0 32 10)"><text x="0" y="14" font-family="Virgil, Segoe UI Emoji" font-size="16px" fill="#000000" text-anchor="start" style="white-space: pre;" direction="ltr">Chapter</text></g><g transform="translate(111.20190171208537 10) rotate(0 28 10)"><text x="0" y="14" font-family="Virgil, Segoe UI Emoji" font-size="16px" fill="#000000" text-anchor="start" style="white-space: pre;" direction="ltr">Heading</text></g><g transform="translate(211.20190171208537 10) rotate(0 45 10)"><text x="0" y="14" font-family="Virgil, Segoe UI Emoji" font-size="16px" fill="#000000" text-anchor="start" style="white-space: pre;" direction="ltr">Subheading </text></g><g transform="translate(311.2019017120854 10) rotate(0 104.5 10)"><text x="0" y="14" font-family="Virgil, Segoe UI Emoji" font-size="16px" fill="#000000" text-anchor="start" style="white-space: pre;" direction="ltr">Statistical Classification </text></g></svg>